<svg id="Layer_1" data-name="Layer 1" xmlns="http://www.w3.org/2000/svg" viewBox="0 0 648.31 329.44"><defs><style>.cls-1{fill:#ddd;}</style></defs><title>Arkus-Fatter-Vector</title><path class="cls-1" d="M169.15,332.55c-90.82,0-164.72-73.89-164.72-164.72S78.33,3.11,169.15,3.11,333.88,77,333.88,167.83,260,332.55,169.15,332.55Zm0-318.44c-84.76,0-153.72,69-153.72,153.72s69,153.72,153.72,153.72,153.73-69,153.73-153.72S253.92,14.11,169.15,14.11Z" transform="translate(-4.43 -3.11)"/><path class="cls-1" d="M488,332.55c-90.83,0-164.72-73.89-164.72-164.72S397.19,3.11,488,3.11,652.74,77,652.74,167.83,578.85,332.55,488,332.55Zm0-318.44c-84.76,0-153.72,69-153.72,153.72s69,153.72,153.72,153.72,153.72-69,153.72-153.72S572.78,14.11,488,14.11Z" transform="translate(-4.43 -3.11)"/><rect class="cls-1" x="243.26" y="-24.37" width="11" height="225.17" transform="translate(6.05 198.64) rotate(-45)"/><rect class="cls-1" x="295.36" y="82.61" width="225.47" height="11" transform="translate(52.79 311.27) rotate(-45)"/><rect class="cls-1" x="402.59" y="134.81" width="11" height="225.47" transform="translate(-59.94 357.96) rotate(-45)"/><rect class="cls-1" x="136.18" y="241.94" width="225.17" height="11" transform="translate(-106.54 245.29) rotate(-45)"/></svg>